<svg width="1161" height="104" viewBox="0 0 1161 104" fill="none" xmlns="http://www.w3.org/2000/svg">
<g filter="url(#filter0_d_0_1)">
<path fill-rule="evenodd" clip-rule="evenodd" d="M16 35.2747H115.956C117.613 35.2747 118.956 36.6179 118.956 38.2747V84C118.956 85.6569 117.613 87 115.956 87H16C14.3431 87 13 85.6569 13 84V67.1374H4V84C4 90.6274 9.37258 96 16 96H115.956C122.583 96 127.956 90.6274 127.956 84V38.2747C127.956 31.6473 122.583 26.2747 115.956 26.2747H16C9.37258 26.2747 4 31.6473 4 38.2747V55.1374H13V38.2747C13 36.6179 14.3431 35.2747 16 35.2747Z" fill="black"/>
</g>
<g filter="url(#filter1_d_0_1)">
<path d="M21.044 19.3022H122.929C129.556 19.3022 134.929 24.6748 134.929 31.3022V83.6044" stroke="black" stroke-width="8" stroke-linecap="round"/>
</g>
<g filter="url(#filter2_d_0_1)">
<path d="M31.1154 9.23077H133C139.627 9.23077 145 14.6034 145 21.2308V73.533" stroke="black" stroke-width="7" stroke-linecap="round"/>
</g>
<path fill-rule="evenodd" clip-rule="evenodd" d="M30.728 74.3077C38.2157 74.3077 44.2857 68.2377 44.2857 60.75C44.2857 53.2623 38.2157 47.1923 30.728 47.1923C25.2422 47.1923 20.5173 50.4505 18.383 55.1374H31.1154C34.4291 55.1374 37.1154 57.8237 37.1154 61.1374C37.1154 64.4511 34.4291 67.1374 31.1154 67.1374H18.7662C21.0496 71.4047 25.5498 74.3077 30.728 74.3077Z" fill="black"/>
<path d="M217.272 70.144L227.896 33.28L220.216 8.83199H212.92V6.39999H252.6V8.83199H245.048L264.12 69.376L279.48 8.83199H266.552V6.39999H292.152V8.83199H283.704L260.152 97.28H248.76L229.816 39.424L213.176 97.28H202.04L169.784 8.83199H163.768V6.39999H205.368V8.83199H196.408L217.272 70.144ZM325.249 70.784V59.904C325.249 51.6267 324.78 45.6107 323.841 41.856C322.988 38.016 320.94 36.096 317.697 36.096C315.82 36.096 314.284 36.6507 313.089 37.76C311.98 38.784 311.169 40.5333 310.657 43.008C309.889 46.848 309.505 52.6933 309.505 60.544V70.528C309.505 79.8293 309.761 85.4187 310.273 87.296C310.87 89.1733 311.468 90.7093 312.065 91.904C313.004 93.952 314.838 94.976 317.569 94.976C320.897 94.976 323.073 93.056 324.097 89.216C324.865 86.4853 325.249 80.3413 325.249 70.784ZM317.313 97.28C306.646 97.28 298.582 94.5493 293.121 89.088C287.66 83.6267 284.929 75.8187 284.929 65.664C284.929 55.424 287.83 47.5733 293.633 42.112C299.521 36.5653 307.756 33.792 318.337 33.792C328.918 33.792 336.812 36.352 342.017 41.472C347.222 46.5067 349.825 54.2293 349.825 64.64C349.825 86.4 338.988 97.28 317.313 97.28ZM396.157 38.656C393 38.656 390.226 40.704 387.837 44.8C385.448 48.896 384.253 53.76 384.253 59.392V93.696H393.341V96H353.405V93.696H360.445V37.376H353.405V35.072H384.253V47.36C385.362 43.008 387.496 39.68 390.653 37.376C393.81 34.9867 397.394 33.792 401.405 33.792C405.416 33.792 408.658 34.944 411.133 37.248C413.693 39.4667 414.973 42.6667 414.973 46.848C414.973 50.944 414.034 54.1013 412.157 56.32C410.28 58.5387 407.378 59.648 403.453 59.648C399.613 59.648 396.754 58.368 394.877 55.808C393.085 53.248 392.872 49.7067 394.237 45.184H398.845C400.978 40.832 400.082 38.656 396.157 38.656ZM442.764 69.504C442.764 78.464 443.233 84.4373 444.172 87.424C445.111 90.3253 446.817 91.776 449.292 91.776C451.852 91.776 454.028 90.6667 455.82 88.448C457.697 86.2293 458.636 82.944 458.636 78.592V50.688C458.636 47.0187 457.911 43.904 456.46 41.344C455.009 38.784 452.876 37.504 450.06 37.504C447.244 37.504 445.324 39.3813 444.3 43.136C443.276 46.8907 442.764 53.4613 442.764 62.848V69.504ZM460.3 96L458.892 87.04C455.991 93.8667 450.103 97.28 441.228 97.28C433.889 97.28 428.172 94.6347 424.076 89.344C420.065 84.0533 418.06 76.16 418.06 65.664C418.06 44.416 426.508 33.792 443.404 33.792C450.913 33.792 455.863 35.8827 458.252 40.064V2.30399H450.444V-7.62939e-06H482.444V93.696H488.716V96H460.3ZM493.438 6.39999H559.998L561.278 33.024H558.974C555.817 23.808 552.147 17.536 547.966 14.208C543.87 10.88 537.726 9.216 529.534 9.216H525.95V50.816H531.71C535.806 50.816 539.219 49.3227 541.95 46.336C544.681 43.3493 546.558 39.2533 547.582 34.048H549.502V71.936H547.326C545.961 65.536 544.041 60.9707 541.566 58.24C539.177 55.5093 535.891 54.144 531.71 54.144H525.95V93.184H541.822V96H493.438V93.184H500.99V9.216H493.438V6.39999ZM567.268 -7.62939e-06H598.628V93.696H605.796V96H567.78V93.696H574.82V2.30399H567.268V-7.62939e-06ZM639 65.92H642.712V56.064C642.712 47.9573 642.243 42.5387 641.304 39.808C640.451 36.992 638.744 35.584 636.184 35.584C634.648 35.584 633.24 36.0107 631.96 36.864C630.765 37.632 630.168 38.7413 630.168 40.192C630.168 41.5573 630.424 42.9653 630.936 44.416H634.136C634.819 46.208 635.16 48.384 635.16 50.944C635.16 53.4187 634.093 55.5947 631.96 57.472C629.827 59.264 627.139 60.16 623.896 60.16C616.557 60.16 612.888 56.6187 612.888 49.536C612.888 39.04 621.805 33.792 639.64 33.792C649.795 33.792 656.792 35.5413 660.632 39.04C664.557 42.4533 666.52 48.768 666.52 57.984V83.968C666.52 88.4053 667.757 90.624 670.232 90.624C673.133 90.624 674.84 86.2293 675.352 77.44L677.272 77.568C676.931 85.0773 675.523 90.24 673.048 93.056C670.573 95.872 666.52 97.28 660.888 97.28C650.648 97.28 644.76 94.1227 643.224 87.808C642.115 91.0507 640.451 93.44 638.232 94.976C636.013 96.512 632.771 97.28 628.504 97.28C615.875 97.28 609.56 92.1173 609.56 81.792C609.56 75.7333 611.949 71.5947 616.728 69.376C621.592 67.072 629.016 65.92 639 65.92ZM633.88 81.664C633.88 86.1013 634.093 88.96 634.52 90.24C635.032 91.52 635.928 92.16 637.208 92.16C638.573 92.16 639.811 91.0933 640.92 88.96C642.115 86.7413 642.712 83.712 642.712 79.872V67.968H641.816C636.525 67.968 633.88 71.8507 633.88 79.616V81.664ZM681.474 97.28V74.368H683.01C685.229 81.792 688.215 86.9973 691.97 89.984C695.725 92.9707 700.418 94.464 706.05 94.464C714.754 94.464 719.106 91.6907 719.106 86.144C719.106 83.7547 718.039 81.9627 715.906 80.768C712.578 78.8907 708.311 77.44 703.106 76.416C697.303 74.88 692.439 72.832 688.514 70.272C683.821 67.2 681.474 62.336 681.474 55.68C681.474 49.024 683.522 43.7333 687.618 39.808C691.714 35.7973 697.175 33.792 704.002 33.792C708.183 33.792 712.493 34.7733 716.93 36.736C718.551 37.4187 719.789 37.76 720.642 37.76C721.495 37.76 722.221 37.4613 722.818 36.864C723.415 36.2667 724.141 35.1573 724.994 33.536H726.402V53.12H724.866C720.514 42.0267 713.773 36.48 704.642 36.48C700.631 36.48 697.645 37.2053 695.682 38.656C693.719 40.0213 692.738 41.7707 692.738 43.904C692.738 45.184 693.037 46.208 693.634 46.976C694.231 47.6587 694.701 48.1707 695.042 48.512C695.383 48.8533 695.938 49.2373 696.706 49.664C697.474 50.0053 698.114 50.304 698.626 50.56C699.138 50.7307 699.906 50.9867 700.93 51.328C702.039 51.6693 702.85 51.8827 703.362 51.968C709.165 53.4187 713.346 54.6987 715.906 55.808C718.466 56.832 720.898 58.112 723.202 59.648C727.895 62.8907 730.242 68.1387 730.242 75.392C730.242 82.56 728.109 88.0213 723.842 91.776C719.575 95.4453 713.73 97.28 706.306 97.28C701.015 97.28 695.895 96.0427 690.946 93.568C689.922 92.8853 689.111 92.544 688.514 92.544C686.637 92.544 684.802 94.1227 683.01 97.28H681.474ZM734.03 -7.62939e-06H764.878V46.848C766.243 42.9227 768.334 39.7653 771.15 37.376C773.966 34.9867 778.233 33.792 783.95 33.792C797.177 33.792 803.79 40.9173 803.79 55.168V93.696H810.958V96H774.734V93.696H779.982V52.096C779.982 46.976 779.641 43.6907 778.958 42.24C778.275 40.704 777.038 39.936 775.246 39.936C772.515 39.936 770.083 41.728 767.95 45.312C765.902 48.896 764.878 53.248 764.878 58.368V93.696H770.382V96H734.03V93.696H741.07V2.30399H734.03V-7.62939e-06ZM862.825 7.55199C849.598 7.55199 842.985 20.3093 842.985 45.824V55.936C842.985 68.0533 844.734 77.568 848.233 84.48C851.732 91.3067 856.894 94.72 863.721 94.72C873.108 94.72 881.726 85.5893 889.577 67.328H891.881L890.985 95.872H889.577C889.065 94.9333 888.596 94.2933 888.169 93.952C887.742 93.5253 887.102 93.312 886.249 93.312C885.481 93.312 882.409 93.9947 877.033 95.36C871.657 96.64 866.196 97.28 860.649 97.28C846.74 97.28 835.945 93.5253 828.265 86.016C820.67 78.5067 816.873 67.2427 816.873 52.224C816.873 37.12 820.841 25.472 828.777 17.28C836.798 9.088 847.55 4.992 861.033 4.992C866.238 4.992 871.316 5.67466 876.265 7.03999C881.3 8.32 884.244 8.96 885.097 8.96C885.95 8.96 886.59 8.78933 887.017 8.448C887.444 8.02133 887.913 7.33866 888.425 6.39999H889.833L890.857 34.176H888.553C884.713 25.5573 880.745 18.9867 876.649 14.464C872.638 9.856 868.03 7.55199 862.825 7.55199ZM932 65.92H935.712V56.064C935.712 47.9573 935.243 42.5387 934.304 39.808C933.451 36.992 931.744 35.584 929.184 35.584C927.648 35.584 926.24 36.0107 924.96 36.864C923.765 37.632 923.168 38.7413 923.168 40.192C923.168 41.5573 923.424 42.9653 923.936 44.416H927.136C927.819 46.208 928.16 48.384 928.16 50.944C928.16 53.4187 927.093 55.5947 924.96 57.472C922.827 59.264 920.139 60.16 916.896 60.16C909.557 60.16 905.888 56.6187 905.888 49.536C905.888 39.04 914.805 33.792 932.64 33.792C942.795 33.792 949.792 35.5413 953.632 39.04C957.557 42.4533 959.52 48.768 959.52 57.984V83.968C959.52 88.4053 960.757 90.624 963.232 90.624C966.133 90.624 967.84 86.2293 968.352 77.44L970.272 77.568C969.931 85.0773 968.523 90.24 966.048 93.056C963.573 95.872 959.52 97.28 953.888 97.28C943.648 97.28 937.76 94.1227 936.224 87.808C935.115 91.0507 933.451 93.44 931.232 94.976C929.013 96.512 925.771 97.28 921.504 97.28C908.875 97.28 902.56 92.1173 902.56 81.792C902.56 75.7333 904.949 71.5947 909.728 69.376C914.592 67.072 922.016 65.92 932 65.92ZM926.88 81.664C926.88 86.1013 927.093 88.96 927.52 90.24C928.032 91.52 928.928 92.16 930.208 92.16C931.573 92.16 932.811 91.0933 933.92 88.96C935.115 86.7413 935.712 83.712 935.712 79.872V67.968H934.816C929.525 67.968 926.88 71.8507 926.88 79.616V81.664ZM1014.28 38.656C1011.12 38.656 1008.35 40.704 1005.96 44.8C1003.57 48.896 1002.38 53.76 1002.38 59.392V93.696H1011.47V96H971.53V93.696H978.57V37.376H971.53V35.072H1002.38V47.36C1003.49 43.008 1005.62 39.68 1008.78 37.376C1011.94 34.9867 1015.52 33.792 1019.53 33.792C1023.54 33.792 1026.78 34.944 1029.26 37.248C1031.82 39.4667 1033.1 42.6667 1033.1 46.848C1033.1 50.944 1032.16 54.1013 1030.28 56.32C1028.4 58.5387 1025.5 59.648 1021.58 59.648C1017.74 59.648 1014.88 58.368 1013 55.808C1011.21 53.248 1011 49.7067 1012.36 45.184H1016.97C1019.1 40.832 1018.21 38.656 1014.28 38.656ZM1060.89 69.504C1060.89 78.464 1061.36 84.4373 1062.3 87.424C1063.24 90.3253 1064.94 91.776 1067.42 91.776C1069.98 91.776 1072.15 90.6667 1073.95 88.448C1075.82 86.2293 1076.76 82.944 1076.76 78.592V50.688C1076.76 47.0187 1076.04 43.904 1074.59 41.344C1073.13 38.784 1071 37.504 1068.19 37.504C1065.37 37.504 1063.45 39.3813 1062.43 43.136C1061.4 46.8907 1060.89 53.4613 1060.89 62.848V69.504ZM1078.43 96L1077.02 87.04C1074.12 93.8667 1068.23 97.28 1059.35 97.28C1052.01 97.28 1046.3 94.6347 1042.2 89.344C1038.19 84.0533 1036.19 76.16 1036.19 65.664C1036.19 44.416 1044.63 33.792 1061.53 33.792C1069.04 33.792 1073.99 35.8827 1076.38 40.064V2.30399H1068.57V-7.62939e-06H1100.57V93.696H1106.84V96H1078.43ZM1111.85 97.28V74.368H1113.39C1115.6 81.792 1118.59 86.9973 1122.35 89.984C1126.1 92.9707 1130.79 94.464 1136.43 94.464C1145.13 94.464 1149.48 91.6907 1149.48 86.144C1149.48 83.7547 1148.41 81.9627 1146.28 80.768C1142.95 78.8907 1138.69 77.44 1133.48 76.416C1127.68 74.88 1122.81 72.832 1118.89 70.272C1114.2 67.2 1111.85 62.336 1111.85 55.68C1111.85 49.024 1113.9 43.7333 1117.99 39.808C1122.09 35.7973 1127.55 33.792 1134.38 33.792C1138.56 33.792 1142.87 34.7733 1147.31 36.736C1148.93 37.4187 1150.16 37.76 1151.02 37.76C1151.87 37.76 1152.6 37.4613 1153.19 36.864C1153.79 36.2667 1154.52 35.1573 1155.37 33.536H1156.78V53.12H1155.24C1150.89 42.0267 1144.15 36.48 1135.02 36.48C1131.01 36.48 1128.02 37.2053 1126.06 38.656C1124.09 40.0213 1123.11 41.7707 1123.11 43.904C1123.11 45.184 1123.41 46.208 1124.01 46.976C1124.61 47.6587 1125.08 48.1707 1125.42 48.512C1125.76 48.8533 1126.31 49.2373 1127.08 49.664C1127.85 50.0053 1128.49 50.304 1129 50.56C1129.51 50.7307 1130.28 50.9867 1131.31 51.328C1132.41 51.6693 1133.23 51.8827 1133.74 51.968C1139.54 53.4187 1143.72 54.6987 1146.28 55.808C1148.84 56.832 1151.27 58.112 1153.58 59.648C1158.27 62.8907 1160.62 68.1387 1160.62 75.392C1160.62 82.56 1158.48 88.0213 1154.22 91.776C1149.95 95.4453 1144.11 97.28 1136.68 97.28C1131.39 97.28 1126.27 96.0427 1121.32 93.568C1120.3 92.8853 1119.49 92.544 1118.89 92.544C1117.01 92.544 1115.18 94.1227 1113.39 97.28H1111.85Z" fill="black"/>
<defs>
<filter id="filter0_d_0_1" x="0" y="26.2747" width="131.956" height="77.7253" filterUnits="userSpaceOnUse" color-interpolation-filters="sRGB">
<feFlood flood-opacity="0" result="BackgroundImageFix"/>
<feColorMatrix in="SourceAlpha" type="matrix" values="0 0 0 0 0 0 0 0 0 0 0 0 0 0 0 0 0 0 127 0" result="hardAlpha"/>
<feOffset dy="4"/>
<feGaussianBlur stdDeviation="2"/>
<feComposite in2="hardAlpha" operator="out"/>
<feColorMatrix type="matrix" values="0 0 0 0 0 0 0 0 0 0 0 0 0 0 0 0 0 0 0.25 0"/>
<feBlend mode="normal" in2="BackgroundImageFix" result="effect1_dropShadow_0_1"/>
<feBlend mode="normal" in="SourceGraphic" in2="effect1_dropShadow_0_1" result="shape"/>
</filter>
<filter id="filter1_d_0_1" x="13.044" y="15.3022" width="129.885" height="80.3022" filterUnits="userSpaceOnUse" color-interpolation-filters="sRGB">
<feFlood flood-opacity="0" result="BackgroundImageFix"/>
<feColorMatrix in="SourceAlpha" type="matrix" values="0 0 0 0 0 0 0 0 0 0 0 0 0 0 0 0 0 0 127 0" result="hardAlpha"/>
<feOffset dy="4"/>
<feGaussianBlur stdDeviation="2"/>
<feComposite in2="hardAlpha" operator="out"/>
<feColorMatrix type="matrix" values="0 0 0 0 0 0 0 0 0 0 0 0 0 0 0 0 0 0 0.25 0"/>
<feBlend mode="normal" in2="BackgroundImageFix" result="effect1_dropShadow_0_1"/>
<feBlend mode="normal" in="SourceGraphic" in2="effect1_dropShadow_0_1" result="shape"/>
</filter>
<filter id="filter2_d_0_1" x="23.6154" y="5.73077" width="128.885" height="79.3022" filterUnits="userSpaceOnUse" color-interpolation-filters="sRGB">
<feFlood flood-opacity="0" result="BackgroundImageFix"/>
<feColorMatrix in="SourceAlpha" type="matrix" values="0 0 0 0 0 0 0 0 0 0 0 0 0 0 0 0 0 0 127 0" result="hardAlpha"/>
<feOffset dy="4"/>
<feGaussianBlur stdDeviation="2"/>
<feComposite in2="hardAlpha" operator="out"/>
<feColorMatrix type="matrix" values="0 0 0 0 0 0 0 0 0 0 0 0 0 0 0 0 0 0 0.25 0"/>
<feBlend mode="normal" in2="BackgroundImageFix" result="effect1_dropShadow_0_1"/>
<feBlend mode="normal" in="SourceGraphic" in2="effect1_dropShadow_0_1" result="shape"/>
</filter>
</defs>
</svg>
